<?xml version="1.0" standalone="no"?>
<!DOCTYPE svg PUBLIC "-//W3C//DTD SVG 20010904//EN"
 "http://www.w3.org/TR/2001/REC-SVG-20010904/DTD/svg10.dtd">
<svg version="1.0" xmlns="http://www.w3.org/2000/svg"
 width="611.000000pt" height="611.000000pt" viewBox="0 0 611.000000 611.000000"
 preserveAspectRatio="xMidYMid meet">

<g transform="translate(0.000000,611.000000) scale(0.100000,-0.100000)"
fill="#000000" stroke="none">
<path d="M0 3055 l0 -3055 3055 0 3055 0 0 3055 0 3055 -3055 0 -3055 0 0
-3055z m2404 1600 c203 -98 314 -358 246 -577 -42 -135 -133 -208 -261 -208
-80 0 -101 16 -26 19 71 2 153 44 194 98 41 55 57 134 49 235 -13 157 -69 271
-174 353 -59 47 -105 66 -209 87 -100 19 -72 40 44 33 46 -3 83 -14 137 -40z
m-522 14 c113 -24 231 -95 287 -171 17 -23 31 -46 31 -50 0 -5 -35 16 -79 47
-115 80 -181 108 -271 113 -99 5 -173 -22 -240 -87 -107 -104 -88 -200 77
-372 42 -43 72 -79 67 -79 -5 0 -33 14 -63 31 -199 114 -259 337 -127 472 87
90 194 122 318 96z m-31 -159 c20 -6 44 -19 54 -30 18 -20 17 -20 -41 -20
-112 0 -131 -47 -68 -165 19 -37 33 -70 30 -72 -10 -10 -96 81 -117 124 -34
70 -10 133 61 162 32 13 38 13 81 1z m257 -50 c40 -25 43 -46 2 -25 -57 29
-103 13 -116 -41 -8 -30 -24 -22 -24 12 0 34 42 74 77 74 15 0 43 -9 61 -20z
m-697 -300 c-30 -192 8 -379 108 -523 71 -103 199 -207 307 -249 83 -32 234
-32 314 0 63 25 63 25 55 12 -12 -19 -105 -60 -172 -76 -130 -31 -279 1 -407
87 -93 62 -154 130 -207 232 -49 94 -69 182 -69 307 1 110 10 160 47 250 32
75 39 62 24 -40z m919 -92 c0 -37 -24 -90 -51 -112 -55 -47 -157 -28 -219 40
l-25 27 25 -7 c133 -37 169 -33 220 25 37 40 50 48 50 27z m946 -3 c-21 -16
-32 -13 -21 4 3 6 14 11 23 11 15 -1 15 -2 -2 -15z m-353 -37 c9 -7 19 -25 23
-40 5 -24 3 -28 -14 -28 -14 0 -22 8 -24 23 -2 12 -7 21 -13 20 -5 -2 -11 -39
-13 -84 -2 -62 0 -80 10 -77 7 3 15 15 18 29 8 35 36 31 33 -4 -3 -37 -20 -57
-49 -57 -37 0 -54 36 -54 115 0 99 33 140 83 103z m140 -102 c9 -60 15 -111
13 -114 -11 -10 -36 9 -36 28 0 30 -38 26 -46 -5 -9 -36 -37 -33 -30 3 3 15
10 61 16 102 15 99 16 102 42 98 20 -3 24 -13 41 -112z m124 97 c3 -7 -8 -13
-24 -15 -22 -2 -29 -9 -31 -31 -3 -22 1 -30 17 -34 27 -7 27 -33 1 -33 -17 0
-20 -7 -20 -50 0 -43 -3 -50 -20 -50 -19 0 -20 7 -20 108 0 60 3 112 7 116 11
11 86 2 90 -11z m123 2 c0 -10 -10 -15 -30 -15 -27 0 -30 -3 -30 -31 0 -22 5
-32 20 -36 11 -3 20 -12 20 -19 0 -8 -9 -14 -20 -14 -16 0 -20 -7 -20 -35 0
-32 2 -35 30 -35 20 0 30 -5 30 -15 0 -11 -12 -15 -50 -15 l-50 0 0 115 0 115
50 0 c38 0 50 -4 50 -15z m154 -4 c12 -13 16 -32 14 -58 -2 -32 -8 -40 -35
-53 -29 -13 -33 -19 -33 -58 0 -36 -3 -43 -17 -40 -16 3 -18 17 -21 102 -1 55
0 106 2 113 8 20 70 16 90 -6z m68 -78 c2 -79 6 -98 18 -98 12 0 16 19 18 98
2 77 6 97 17 97 12 0 15 -19 15 -105 0 -93 -2 -105 -19 -115 -27 -14 -47 -13
-65 6 -23 22 -23 214 -1 214 11 0 15 -20 17 -97z m185 89 c18 -12 26 -58 13
-82 -9 -16 -9 -25 -1 -33 16 -16 13 -73 -5 -91 -9 -9 -32 -16 -55 -16 l-39 0
0 115 0 115 38 0 c20 0 42 -4 49 -8z m-1708 -167 c42 -74 179 -211 249 -248
71 -38 146 -45 190 -18 29 19 45 44 80 131 l11 25 0 -26 c2 -46 -28 -124 -56
-151 -43 -39 -66 -48 -131 -48 -132 0 -288 123 -372 292 -29 60 -42 100 -46
143 l-5 60 23 -50 c13 -28 38 -77 57 -110z m-1619 -137 c0 -12 -6 -9 -26 13
-19 22 -19 22 4 8 12 -8 22 -17 22 -21z m2645 -13 c24 -23 25 -29 25 -165 0
-135 -7 -174 -33 -192 -7 -4 -3 -17 9 -35 18 -26 19 -53 22 -440 l3 -413 -34
0 c-31 0 -35 4 -41 31 -3 17 -6 195 -6 396 0 258 -3 371 -12 386 -12 23 -37
46 -50 47 -5 0 -8 -193 -8 -430 l0 -430 -40 0 -40 0 0 635 0 635 90 0 c83 0
93 -2 115 -25z m307 -4 l33 -29 3 -564 c2 -549 2 -564 -18 -596 -44 -72 -156
-68 -195 8 -23 44 -23 1106 0 1150 33 64 123 80 177 31z m308 14 c44 -23 60
-63 60 -150 l0 -75 -40 0 -39 0 -3 78 c-3 73 -4 77 -27 80 -39 6 -51 -21 -51
-118 0 -100 8 -115 64 -123 23 -4 51 -17 65 -32 l26 -25 3 -388 c2 -263 0
-399 -8 -425 -13 -44 -58 -77 -105 -77 -39 0 -93 33 -105 66 -6 14 -10 158
-10 335 l0 309 35 0 35 0 0 -298 c0 -322 2 -337 51 -330 l24 3 0 390 0 390
-37 6 c-47 7 -86 33 -98 65 -13 33 -13 235 0 268 12 32 65 66 103 66 15 0 41
-7 57 -15z m321 -1 c59 -30 59 -27 59 -669 l0 -586 -37 3 -38 3 -1 55 c0 30
-1 225 -2 433 l-2 378 -36 -3 -35 -3 1 -432 1 -433 -41 0 -40 0 0 599 c0 596
0 598 21 625 37 47 96 59 150 30z m465 -41 l39 -57 3 57 3 57 39 0 40 0 0
-635 0 -635 -40 0 -40 0 0 513 0 513 -31 42 c-17 23 -34 42 -37 42 -4 0 -7
-249 -7 -552 l0 -553 -37 -3 -38 -3 0 635 0 636 33 0 c30 0 38 -7 73 -57z
m402 20 l-3 -38 -57 -3 -58 -3 0 -134 c0 -74 2 -135 5 -135 3 0 17 7 30 16 22
14 26 14 49 -3 32 -23 32 -24 1 -53 -23 -22 -26 -22 -43 -7 -42 38 -42 36 -42
-388 1 -250 5 -405 10 -406 39 -5 54 -7 80 -8 27 -1 30 -4 30 -36 l0 -35 -95
0 -95 0 0 635 0 635 96 0 95 0 -3 -37z m261 21 c26 -19 60 -87 61 -121 0 -20
-5 -23 -40 -23 -35 0 -40 3 -40 23 0 31 -27 67 -51 67 -19 0 -19 -10 -17 -562
2 -422 6 -562 15 -565 6 -2 21 5 32 16 20 20 21 30 21 401 0 373 0 380 -20
380 -17 0 -20 7 -20 40 l0 41 58 -3 57 -3 3 -410 c2 -356 0 -416 -14 -452 -24
-66 -53 -83 -140 -83 l-74 0 0 635 0 635 73 0 c51 0 79 -5 96 -16z m361 -4
c25 -19 25 -20 25 -173 0 -139 -2 -157 -19 -176 -19 -21 -19 -22 0 -59 18 -34
19 -65 22 -439 l3 -403 -41 0 -40 0 0 399 0 399 -26 31 c-55 65 -54 70 -54
-399 l0 -430 -35 0 -35 0 0 635 0 635 88 0 c70 0 92 -4 112 -20z m291 4 c59
-30 59 -27 59 -669 l0 -585 -40 0 -40 0 0 436 0 435 -37 -3 -38 -3 -3 -432 -2
-433 -35 0 -35 0 2 606 3 606 33 29 c37 33 85 38 133 13z m-5231 -73 c30 -16
107 -50 170 -76 188 -77 287 -133 361 -202 93 -88 122 -153 126 -288 4 -106
-9 -115 -20 -15 -4 30 -20 83 -37 116 -46 93 -109 149 -252 223 -184 96 -295
162 -380 229 -81 65 -114 101 -57 64 18 -13 59 -36 89 -51z m-100 -251 c0 -4
-16 -4 -35 -2 -26 3 -46 -3 -75 -22 l-40 -26 0 63 c0 35 3 105 7 156 l6 92 68
-128 c38 -70 69 -130 69 -133z m-172 107 c-6 -181 5 -286 37 -378 46 -133 102
-202 207 -255 89 -45 156 -56 348 -56 96 0 168 -3 160 -8 -45 -25 -190 -42
-305 -37 -271 12 -429 129 -490 367 -25 94 -17 303 15 423 13 48 26 87 28 87
2 0 2 -64 0 -143z m242 73 c25 -17 82 -51 127 -76 101 -55 127 -85 119 -134
-3 -19 0 -51 6 -72 17 -58 1 -58 -51 -2 -192 210 -261 290 -261 301 0 19 10
16 60 -17z m260 -363 c174 -131 247 -193 239 -202 -3 -3 -22 7 -42 22 -19 16
-74 55 -122 88 -129 88 -232 173 -302 248 -93 100 -97 123 -7 37 43 -41 149
-128 234 -193z m66 83 c7 -57 1 -63 -21 -20 -16 30 -20 91 -8 104 10 9 21 -23
29 -84z m130 27 c99 -73 158 -153 188 -256 17 -59 21 -131 8 -131 -5 0 -68 61
-141 135 -73 74 -136 135 -141 135 -8 0 -4 117 6 148 6 19 18 15 80 -31z
m-472 -29 c31 -23 56 -45 56 -50 0 -13 -40 0 -73 23 -15 11 -43 31 -63 44
l-37 25 30 0 c20 0 50 -14 87 -42z m-71 -32 c51 -30 146 -56 204 -56 46 0 67
-17 31 -24 -104 -22 -140 -32 -189 -57 -57 -28 -84 -52 -76 -66 3 -5 70 -5
149 0 172 9 237 0 333 -47 78 -39 208 -141 202 -159 -3 -9 -55 -12 -188 -12
-165 0 -192 3 -259 23 -105 33 -164 68 -220 129 -55 60 -83 131 -84 211 -1 42
3 57 18 68 26 19 30 18 79 -10z m958 -52 c-80 -196 -106 -315 -99 -445 3 -50
9 -93 12 -96 4 -4 20 -2 37 4 l29 11 -6 -49 c-12 -91 34 -150 183 -231 79 -44
118 -56 308 -98 216 -48 715 -150 731 -150 10 0 14 13 14 47 l0 47 38 -36 c53
-53 104 -71 306 -113 99 -20 218 -48 265 -61 152 -44 312 -123 386 -190 l40
-36 -35 21 c-192 118 -348 155 -1065 255 -337 48 -411 49 -486 11 -39 -21 -41
-20 -34 19 l7 33 -74 18 c-98 24 -337 109 -423 152 -139 68 -221 149 -267 263
-32 80 -32 262 0 374 31 108 143 338 158 323 2 -2 -9 -35 -25 -73z m293 -29
c-20 -31 -320 -248 -336 -243 -18 6 72 97 139 140 37 24 98 64 137 89 39 26
72 45 74 44 2 -2 -4 -15 -14 -30z m836 -6 c-57 -50 -187 -114 -355 -173 -243
-86 -358 -132 -427 -173 -90 -53 -153 -121 -198 -214 -44 -92 -55 -77 -20 26
67 196 227 308 571 400 197 53 305 90 389 134 41 21 77 39 80 39 3 1 -15 -17
-40 -39z m16 -58 c-42 -81 -220 -220 -388 -303 -81 -41 -217 -90 -229 -83 -8
5 -43 124 -38 129 7 6 168 66 177 66 5 0 30 -16 56 -36 26 -20 49 -34 50 -32
2 1 11 26 20 55 l17 51 167 91 c92 49 170 90 175 91 4 0 1 -13 -7 -29z m-1726
-9 c25 -12 59 -33 75 -46 30 -24 29 -24 -60 6 -64 22 -116 32 -180 36 -86 5
-89 6 -60 19 45 20 169 11 225 -15z m1817 -84 c-10 -127 -75 -277 -155 -361
-53 -55 -136 -102 -222 -127 -67 -20 -104 -22 -360 -26 -271 -3 -281 -3 -205
11 44 8 145 21 225 30 195 21 318 48 398 86 90 43 188 141 230 230 40 84 41
112 2 40 -57 -103 -139 -192 -215 -232 l-41 -22 -57 33 c-31 17 -55 36 -52 40
3 5 41 29 85 54 95 55 163 109 249 199 67 70 87 82 76 45 -5 -15 -4 -20 3 -13
5 6 15 27 22 48 6 20 14 37 17 37 3 0 3 -33 0 -72z m-202 -98 c-10 -16 -166
-116 -234 -150 -96 -48 -491 -196 -491 -184 0 8 172 87 316 145 151 60 315
138 364 173 36 26 55 33 45 16z m-640 -176 c9 -25 13 -49 9 -54 -11 -10 -238
-130 -247 -130 -10 0 32 70 71 118 39 49 130 124 141 117 5 -2 16 -25 26 -51z
m427 -80 c5 -3 8 -10 8 -16 0 -6 -22 -8 -62 -3 -79 8 -98 14 -98 27 0 10 134
3 152 -8z m-112 -42 c18 -12 21 -17 10 -19 -37 -7 -285 -31 -289 -27 -5 4 76
41 134 60 47 16 110 10 145 -14z m-916 -120 c38 -18 67 -35 64 -38 -3 -3 -32
3 -64 12 -84 25 -188 23 -241 -4 -75 -39 -95 -67 -223 -307 -105 -196 -223
-330 -317 -359 -39 -12 -25 8 22 33 68 36 112 92 171 217 30 63 78 165 108
227 61 129 114 194 189 232 46 23 61 26 137 23 71 -3 96 -8 154 -36z m-25 -62
c79 -9 100 -15 90 -24 -2 -2 -55 -29 -117 -61 -106 -53 -118 -63 -205 -158
-138 -152 -316 -331 -322 -325 -10 10 161 330 200 376 54 62 124 95 207 96
l67 0 -21 36 c-12 19 -25 39 -30 45 -18 20 -8 35 20 30 15 -3 65 -10 111 -15z
m-149 -40 c17 -11 11 -14 -60 -29 -70 -16 -78 -13 -47 14 29 26 79 33 107 15z
m294 -103 c-52 -308 -142 -461 -324 -550 -77 -38 -193 -62 -238 -50 l-23 6 30
31 c36 37 70 110 71 149 0 22 32 68 131 188 72 87 135 159 140 159 20 0 2 -35
-116 -220 -76 -120 -120 -199 -115 -204 18 -18 110 36 164 95 58 62 98 149
137 298 25 94 50 128 102 133 44 5 47 2 41 -35z m-241 -44 c-34 -32 -98 -103
-143 -158 -152 -186 -287 -305 -346 -305 -13 0 -9 6 16 21 68 41 122 92 239
227 65 75 138 156 162 178 41 38 117 94 129 94 2 0 -23 -26 -57 -57z m42 -120
c-10 -57 -59 -153 -104 -203 -22 -25 -42 -43 -45 -40 -5 5 145 280 153 280 2
0 0 -17 -4 -37z m210 -54 c-45 -223 -136 -353 -300 -430 -105 -50 -213 -61
-336 -35 -78 17 -290 97 -271 104 7 2 63 -7 125 -19 152 -32 336 -32 419 -1
161 59 259 170 338 385 18 48 35 85 37 83 3 -3 -2 -42 -12 -87z m-538 -234
c-10 -35 -76 -105 -98 -105 -6 0 0 15 13 33 13 17 37 49 52 70 36 47 47 47 33
2z m-149 -97 c-2 -18 -10 -24 -39 -26 -19 -2 -48 2 -65 9 l-29 12 40 13 c22 7
53 13 68 13 24 1 28 -3 25 -21z"/>
<path d="M3010 3946 c0 -13 -3 -31 -6 -40 -4 -11 -1 -16 10 -16 12 0 16 10 16
40 0 22 -4 40 -10 40 -5 0 -10 -11 -10 -24z"/>
<path d="M3416 4003 c-13 -13 -6 -63 9 -63 10 0 15 10 15 29 0 30 -12 46 -24
34z"/>
<path d="M3676 4003 c-12 -13 -6 -53 9 -53 9 0 15 9 15 24 0 26 -12 40 -24 29z"/>
<path d="M3670 3875 c0 -37 22 -49 34 -19 9 23 -2 54 -20 54 -9 0 -14 -11 -14
-35z"/>
<path d="M2917 3664 c-4 -4 -7 -61 -7 -126 l0 -118 35 0 35 0 1 103 c0 56 2
110 4 120 2 9 -2 17 -8 17 -7 0 -21 3 -32 6 -11 3 -24 2 -28 -2z"/>
<path d="M3237 3653 c-4 -3 -7 -251 -7 -549 0 -531 0 -544 20 -554 15 -8 24
-6 40 10 20 20 20 31 20 541 0 339 -4 527 -10 540 -10 18 -50 26 -63 12z"/>
<path d="M3890 3650 c-19 -19 -20 -31 -18 -128 l3 -107 35 0 35 0 3 117 c2
108 1 118 -17 128 -17 8 -25 6 -41 -10z"/>
<path d="M5352 3663 c-22 -4 -23 -7 -20 -121 l3 -117 38 -3 37 -3 0 119 c0
100 -3 121 -16 126 -9 3 -16 5 -17 5 -1 -1 -12 -4 -25 -6z"/>
<path d="M5667 3652 c-14 -15 -17 -40 -17 -125 0 -105 0 -107 25 -113 51 -13
55 -4 55 120 0 104 -2 116 -19 126 -25 13 -25 13 -44 -8z"/>
</g>
</svg>
